<?xml version="1.0" encoding="UTF-8"?>
<svg id="Camada_2" data-name="Camada 2" xmlns="http://www.w3.org/2000/svg" viewBox="0 0 512 512">
  <defs>
    <style>
      .cls-1 {
        fill: #fc4612;
      }
    </style>
  </defs>
  <g id="Camada_1-2" data-name="Camada 1">
    <rect width="512" height="512" rx="72.65" ry="72.65"/>
    <g>
      <path class="cls-1" d="M303.42,128.92l-10.65,35.68c-.16.56-.72.9-1.29.79l-2.92-.57c-.07-.02-.15-.02-.22-.02-.67-.01-1.22.53-1.23,1.2l-.42,15.91c0,.25.1.49.29.65.34.29.85.24,1.14-.1.04-.03.43-1.41,1.16-4.15.07-.26.13-.41.18-.44.23-.16.5-.2.83-.13.28.06.49.27.55.55l1.07,5.29c.14.67.57,1.23,1.17,1.54l10.25,5.12c1.37.68,3.04.18,3.82-1.13,3.67-6.22,8.52-12.54,14.55-18.95.12-.11.29-.15.45-.09.22.08.33.33.24.55-1.19,2.84-.93,5.31.77,7.41,1.17,1.46,2.67,1.6,4.36,2.54.02.01.04.02.06.04.37.25.47.75.23,1.11l-9.06,13.99c-.9,1.37-.59,3.2.7,4.22l5.96,4.66c1.9,1.5,4.6,1.45,6.45-.12,10.46-8.85,20.27-16.04,29.43-21.57.61-.36.97-1.02.96-1.72v-1.91c.01-.1.03-.2.05-.29.16-.58.76-.91,1.34-.75,2.68.76,5.12.98,7.31.66.32-.03.63-.16.9-.35l23-15.76c.1-.06.23-.08.34-.05.24.06.38.3.32.54-.64,2.19-1.98,4.34-4.01,6.46-12.6,13.1-27.42,24.31-44.47,33.64-.92.5-1.99.68-3.03.51l-3.7-.6c-.27-.03-.53.1-.66.34-.18.32-.06.72.26.9.07.03.59.45,1.55,1.24.02.02.04.04.05.06.09.13.06.32-.08.41l-24.83,17.54c-.18.13-.39.22-.61.27-.57.14-1.01.16-1.3.05-.1-.03-.2-.05-.31-.04-.42.03-.73.41-.7.83.1,1.06-.54,2.08-1.94,3.06-2.46,1.71-4.26,3.23-5.4,4.54-.4.45-.5,1.1-.25,1.65,2.33,5.14,6.04,8.27,11.15,9.4.69.15,1.42.08,2.07-.2l18.04-7.64s.02,0,.03,0c.06-.01.12.03.13.09l.09.46c.03.11-.01.22-.1.29l-20.07,15.41c-.14.11-.25.25-.33.41-.25.55-.01,1.19.53,1.44,1.3.59,2.7.61,4.21.07,2.56-.93,12.43-4.73,29.61-11.41.04-.01.07-.03.11-.05.56-.3.77-.98.48-1.53l-5.22-9.94s0,0,0,0c-.13-.25-.03-.57.23-.71l50.84-26.72c.64-.34,1.05-1,1.05-1.73v-40.19c0-1.18.52-2.3,1.45-3.06,3.02-2.45,5.27-4.94,6.73-7.49,2.53-4.38,6.45-11.49,11.77-21.3.23-.42.35-.89.35-1.37v-13.14c-.01-.68-.22-1.34-.61-1.9-.5-.73-1.44-1.72-2.81-2.97-.3-.28-.7-.44-1.12-.44h-31.98c-.7,0-1.36.33-1.76.9l-34.31,47.36c-.64.9-1.85,1.2-2.84.7l-8.23-4.12c-.06-.03-.12-.07-.18-.11-.5-.37-.6-1.08-.23-1.57l18.27-25.22c.54-.75.64-1.72.26-2.55-.3-.66-.86-1.56-1.71-2.7-.43-.57-1.1-.92-1.81-.92h-38.05c-.7,0-1.37.27-1.9.73l-6.08,5.46c-.33.3-.57.68-.69,1.11Z"/>
      <path class="cls-1" d="M359.66,132.28c.36.46,1.03.55,1.5.18.18-.15.47-.63.86-1.43.39-.81.59-1.32.59-1.55,0-.03,0-.05,0-.08-.04-.59-.54-1.04-1.13-1-1.88.11-2.93.4-3.14.85-.23.45.2,1.45,1.29,2.98.01.02.02.03.04.05Z"/>
      <path class="cls-1" d="M437.97,209.37c0-.09-.02-.19-.06-.27-.15-.33-.54-.48-.88-.33-21.5,10.04-41.91,21.67-62.96,32.47-6.88,3.52-12.32,5.84-16.32,6.97-.73.21-16.4,6.13-47.02,17.78-.23.07-.38.29-.37.53,0,.29.26.53.55.52h8.56c.12-.01.24,0,.35.05.53.19.8.77.61,1.3l-3.84,10.74c-.21.62.06,1.29.64,1.58l17.15,8.58s.07.03.1.05c.52.19,1.09-.08,1.28-.59l6.84-19.16c.17-.45.61-.75,1.09-.76h28.08c.15,0,.3.03.44.08.67.24,1.01.98.77,1.65l-4.15,11.63c-.42,1.2.03,2.54,1.09,3.23l50.97,33.1c.43.27.92.42,1.43.42,1.45,0,2.63-1.17,2.62-2.62v-45.66s0-.01,0-.02c0-.67.55-1.21,1.22-1.21h9.3s.01,0,.02,0c1.38,0,2.5-1.13,2.5-2.51v-57.53Z"/>
      <path class="cls-1" d="M261.34,150.73c.15.66.79,1.1,1.47,1.03l13.07-1.59c.8-.1,1.4-.77,1.39-1.58v-23.27c-.01-.07,0-.14,0-.21.11-.58.68-.96,1.27-.85l6.2,1.22c.64.13,1.28-.26,1.47-.9l3.06-10.27c.21-.69.84-1.16,1.55-1.16h.99c.15,0,.3.02.45.06.83.24,1.31,1.11,1.06,1.94l-1.2,4.01c-.04.11-.03.23.03.34.12.22.4.3.62.18,3.76-2.07,5.49-4.71,5.18-7.89-.03-.28,0-.57.09-.85l8.96-30.03s.01-.05.02-.08c.08-.45-.2-.88-.64-.96l-25.65-5.05c-.06-.01-.11-.02-.17-.02-.55,0-1,.44-1.02.99v23.56c.02.58-.46,1.05-1.04,1.05h-.48s0-.01,0-.01c-.34,0-.61-.28-.6-.61v-29.3h0c0-.59-.48-1.06-1.05-1.05h-36.78c-.07,0-.15.01-.22.03-.35.12-.54.49-.42.84,8.78,26.51,16.24,53.31,22.39,80.41Z"/>
      <path class="cls-1" d="M319.86,119.58c.69.46,1.64.84,2.85,1.13.15.03.3.03.45-.02.47-.14.73-.62.59-1.08l-1.91-6.71c-.05-.18-.18-.31-.36-.36-.27-.07-.54.09-.6.36l-1.55,5.2c-.17.55.05,1.15.53,1.47Z"/>
      <path class="cls-1" d="M170.08,145.99c.43.43,1.11.51,1.61.18.28-.19.45-.3.51-.33.78-.46,1.77-.24,2.29.49l6.56,9.22c.3.42.76.68,1.26.74,1.86.21,3.92,1.81,6.2,4.79.53.71,1.53.86,2.25.35l5.63-3.98s.05-.03.07-.05c.46-.26,1.04-.1,1.31.36l12.03,21.15c.17.31.3.64.36.99l1.28,5.78c.15.67.78,1.11,1.47,1.03l6.52-.79c.89-.11,1.57-.83,1.61-1.72l1.02-18.8c.02-.52-.28-.99-.76-1.2l-.76-.34c-.55-.24-.97-.71-1.13-1.29l-17.89-62.98c-.29-.98-1.19-1.66-2.21-1.67h-30.1c-.78.01-1.54.23-2.21.65-1.95,1.22-2.54,3.79-1.32,5.74l7.97,12.76c.08.14.13.3.13.47,0,.52-.41.94-.93.95h-29c-.15-.02-.3.04-.4.16-.2.22-.19.55.03.75l26.58,26.58Z"/>
      <path class="cls-1" d="M262.73,176.96c-.63-.39-1.74.27-2.47,1.47-.73,1.2-.81,2.48-.18,2.87.63.39,1.74-.27,2.47-1.47.73-1.2.81-2.48.18-2.87Z"/>
      <path class="cls-1" d="M401.74,346.5l-14.27-9.27c-.7-.46-1-1.33-.72-2.12l7.76-21.7c.19-.54.29-1.12.29-1.69,0-2.81-2.27-5.09-5.07-5.09h-29.14c-1.2.01-2.26.76-2.66,1.88l-2.51,7.02c-.03.07-.06.13-.1.19-.28.43-.86.56-1.28.28-6.44-4.15-11.79-7.66-16.03-10.54-2.46-1.68-5.09-.46-5.51-4.96-.05-.48-.39-.87-.85-1.01-.63-.18-1.28.18-1.46.81-.21.75-.25,1.44-.13,2.08.01.07.01.13.01.2-.02.52-.47.92-1,.9l-9.86-.53c-.61-.03-1.1-.53-1.09-1.15v-9.45c0-.34-.2-.65-.5-.81-.46-.24-1.03-.06-1.27.4l-.83,1.67s-.03.05-.04.08c-.38.63-1.19.83-1.82.46l-20.47-12.03c-.14-.09-.3-.12-.45-.1-.38.05-.66.41-.61.8.27,2.35,1.09,4.31,2.47,5.89,4.56,5.24,8.7,10.93,12.44,17.07.45.74,1.31,1.13,2.16.96l4.49-.92s.01,0,.02,0c.55-.1,1.08.26,1.18.81l3.52,20.26c.04.22.19.4.4.48.29.11.45.19.48.22.53.42,1.01.91,1.45,1.45l12.44,15.82s.07.1.1.15c.27.5.08,1.12-.41,1.38l-4.25,2.24c-.83.42-1.84.17-2.38-.59l-11.42-16.24s-.06-.09-.1-.13c-1.2-.99-2.17-2.06-2.92-3.2-.89-1.37-2.75-1.99-4.64-1.54-2.07.49-3.32,1.49-3.75,3.02-.25.89.08,2.51,1,4.86,3.8,9.62,7.34,17.46,10.63,23.52,3.59,6.66,7.3,14.41,11.15,23.26,4.83,11.16,9.61,20.67,14.36,28.51,1.63,2.69,5.29,5.12,10.96,7.29.42.16.88.25,1.34.25h30.77c.34-.01.67-.14.93-.37.57-.51.61-1.38.1-1.95l-38.16-42.58c-.05-.05-.1-.11-.13-.18l-11.28-23.65c-.09-.2-.05-.43.1-.6l.1-.08c.12-.09.28-.07.38.04l36.67,41.13c.2.22.37.45.52.7l1.73,3.03c.18.31.46.56.79.72l6.21,2.83c.46.21.95.33,1.46.34,5.05.12,9.58.11,13.58-.04,1.65-.05,3.56-1.49,5.73-4.32.3-.38.46-.85.46-1.34v-42.79c0-.81-.41-1.56-1.08-1.99Z"/>
      <path class="cls-1" d="M304.56,221.93s.03-.05.05-.07c.43-.66.24-1.53-.41-1.96l-.92-.61c-.06-.04-.11-.07-.18-.09-.62-.26-1.33.02-1.6.64l-1.15,2.68c-.07.16-.17.31-.3.42-.49.43-1.23.39-1.66-.1l-2.17-2.44c-.07-.08-.16-.15-.25-.21-.56-.36-1.3-.19-1.65.37l-8.54,13.15c-.43.68-.43,1.55,0,2.24.62.99,1.92,1.3,2.92.68,6.4-4.16,11.69-9.06,15.87-14.7Z"/>
      <path class="cls-1" d="M285.15,201.81s-.02-.09-.03-.13c-.2-.62-.85-.96-1.46-.77l-1.04.34c-.09.03-.18.04-.29.03l-11.89-2.33c-.06-.01-.11-.02-.17-.02-.55-.02-1.01.41-1.03.96l-.72,15.56c-.03.7.38,1.35,1.03,1.63.83.35,2.37.55,4.62.61.6.02,1.13-.41,1.25-1.02l1.35-6.88c.06-.33.33-.57.67-.6.41-.03.76.27.79.68.16,1.8.79,2.97,1.88,3.52.6.29,1.32.19,1.84-.25,3.06-2.67,4.13-6.44,3.2-11.33Z"/>
      <path class="cls-1" d="M423.92,343.18c-.33.41-.19,1.08.31,1.49.51.41,1.19.41,1.52,0,.33-.41.19-1.08-.31-1.49-.51-.41-1.19-.41-1.52,0Z"/>
      <path class="cls-1" d="M152.68,80.04s.26-.51.7-1.51c.27-.57.07-1.26-.46-1.6-1.31-.88-2.24-1.08-2.79-.6-.79.67-1.01,1.79-.53,2.72.57,1.11,1.95,1.55,3.07.99Z"/>
      <path class="cls-1" d="M289.52,224.93c.25-.27.46-.84.64-1.71.02-.14-.01-.28-.09-.39-.17-.24-.5-.3-.74-.13-.66.5-1.03.97-1.12,1.41-.07.28.01.59.22.8.31.33.8.33,1.1.02Z"/>
      <path class="cls-1" d="M254.93,223.4c.4.82.94,1.1,1.61.86.68-.26.9-.83.66-1.71-3.18-12.07-6.39-25.74-9.64-41.02,0-.04-.02-.07-.03-.11-.15-.39-.58-.59-.96-.44-.91.34-2.73,1.02-5.44,2.03-2.71,1.01-4.52,1.68-5.43,2.02-.04.01-.07.03-.11.05-.36.2-.48.65-.28,1.02,7.57,13.66,14.11,26.1,19.61,37.3Z"/>
      <path class="cls-1" d="M253.66,190.63c-.29.29-.29.77,0,1.07s.77.29,1.07,0c.29-.29.29-.77,0-1.07s-.77-.29-1.07,0Z"/>
      <path class="cls-1" d="M274.04,230.34l.39-.03s0,0,0,0c.96-.05,1.56-3.57,1.35-7.87l-.04-.87s0,0,0-.01c-.01-.23-.21-.41-.44-.4l-3.02.16c-.23.02-.4.21-.39.44l.03.89s0,.04,0,.06c.22,4.3,1.17,7.72,2.12,7.64Z"/>
      <path class="cls-1" d="M278.21,233.26c-.23-.13-.52-.05-.65.17-.23.43-.26.84-.12,1.21.05.12.15.21.28.23.27.06.6-.14.73-.45.06-.15.06-.43,0-.83-.02-.14-.11-.26-.23-.33Z"/>
      <path class="cls-1" d="M219.69,195.11l-7.49,5.3c-.06.05-.13.1-.18.15-.84.76-.91,2.06-.15,2.9l9.91,11.06c.5.55,1.33.65,1.94.22l5.1-3.59c.53-.37,1.26-.25,1.63.27l4.14,5.86s0,0,0,0c.44.62,1.3.77,1.92.33l6.11-4.31c.06-.04.12-.07.19-.09.32-.09.66.1.74.43l.64,2.25s.02.04.03.07c.1.18.31.25.48.16l.56-.3c.31-.17.51-.49.51-.85v-5.99c0-.43-.11-.84-.33-1.21l-6.73-11.86s-.05-.08-.08-.12c-.39-.54-1.15-.67-1.68-.28l-9.66,6.82s-.08.06-.13.08c-.6.33-1.35.1-1.68-.51l-3.24-6.16c-.03-.07-.07-.13-.12-.19-.55-.79-1.64-.99-2.44-.43Z"/>
      <path class="cls-1" d="M261.98,226.46c.31-.23.52-.56.6-.93.18-.84-.36-1.66-1.2-1.83-.37-.08-.68.29-.92,1.11-.21.69.05,1.27.78,1.72.23.15.48.13.74-.07Z"/>
      <path class="cls-1" d="M264.95,231.11c.56.08,1.11-.52,1.22-1.32.11-.81-.26-1.52-.82-1.6-.56-.08-1.11.52-1.22,1.32-.11.81.26,1.52.82,1.6Z"/>
      <path class="cls-1" d="M292.14,259.69c-.2-.16-.45-.26-.7-.29-2.52-.3-3.88-.16-4.09.42-.2.56.77,1.54,2.9,2.93.21.13.45.21.7.21.74.03,1.26-.4,1.56-1.28.32-.88.2-1.54-.38-1.99Z"/>
      <path class="cls-1" d="M263.61,241c-.12.68.2,1.05.96,1.12.67.06.98-.24.92-.9-.02-.24-.1-.47-.22-.68-.34-.57-.94-.75-1.34-.42-.13.11-.24.4-.33.87Z"/>
      <path class="cls-1" d="M248.81,224.99s0,0,0,0c-.28-.39-.82-.47-1.21-.19l-5.25,3.74s0,0,0,0c-.39.28-.47.82-.19,1.21l.21.29s0,0,0,0c5.73,8.01,11.86,13.43,13.69,12.12l.03-.03c1.82-1.31-1.34-8.86-7.07-16.86l-.2-.27Z"/>
      <path class="cls-1" d="M96.75,81.85s0,0,0,0c.09.07.21.06.29-.03l.03-.03c.72-.95-1.55-3.88-5.05-6.54l-1.43-1.09s-.01,0-.02-.01c-3.51-2.66-6.93-4.04-7.64-3.09l-.03.03c-.06.09-.04.21.04.27l13.82,10.48Z"/>
      <path class="cls-1" d="M89.53,83.24c-2.28,1.5-3.43,3.48-3.43,5.93.02,20.92.05,32.79.1,35.6.03,1,.62,1.89,1.54,2.29,4.47,1.94,10.7,4.45,15.76,8.02,6.03,4.22,13.11,8.39,21.27,12.51,1.2.61,2.34,1.36,3.39,2.21,8.33,6.84,15.13,12.16,20.38,15.95,2.02,1.45,4.36,1.74,7.02.87.71-.23,1.1-.98.89-1.69-2.01-6.38-4.74-15.44-8.19-27.18-1.24-4.23-3.42-8.03-6.49-10.83-11.3-10.38-20.52-19.31-27.66-26.77-7.29-7.63-13.27-10.77-22.41-16.92-.65-.44-1.51-.44-2.16,0Z"/>
      <path class="cls-1" d="M180.22,168.9c-1.23-3.85-2.81-6.76-3.54-6.52l-.14.04c-.71.28-.29,3.57.92,7.38l8.49,26.64c.08.23.34.36.57.29l1.9-.6s0,0,0,0c.24-.08.37-.34.29-.58l-8.5-26.63s0-.01,0-.02Z"/>
      <path class="cls-1" d="M189.16,175.33c-.14-.17-.36-.23-.56-.16-.27.09-.41.38-.32.65l7.45,26.2c.14.48.58.81,1.08.82h8.4c.39-.02.77-.12,1.11-.32,1.03-.61,1.37-1.94.75-2.96-5.64-9.38-11.61-17.45-17.91-24.23Z"/>
      <path class="cls-1" d="M256.38,246.75s0-.01-.01-.02c-.15-.16-.41-.18-.57-.02l-2.27,1.98s0,0,0,0c-.17.14-.19.4-.05.57l.23.26s.02.02.03.04c2.58,2.95,5.3,4.76,6.09,4.05.77-.72-.68-3.67-3.24-6.6l-.21-.26Z"/>
      <path class="cls-1" d="M173.8,168.67c.82-.18,1.32-1.1,1.12-2.05-.21-.95-1.05-1.58-1.87-1.4-.82.18-1.32,1.1-1.12,2.05s1.05,1.58,1.87,1.4Z"/>
      <path class="cls-1" d="M413.31,408.24c-.34.03-1.21.73-2.62,2.12-.09.08-.15.18-.18.3-.12.38.1.79.48.91,1.28.4,2.29.3,3.02-.29.43-.35.7-.87.74-1.42.07-.95-.58-1.68-1.44-1.63Z"/>
      <path class="cls-1" d="M279.17,276.37c-.23.05-.37.28-.32.51.24,1.55.67,2.57,1.29,3.06.27.21.64.22.92.03.35-.24.44-.72.2-1.07l-1.64-2.34c-.1-.15-.28-.22-.45-.18Z"/>
      <path class="cls-1" d="M220.33,219.61c.08-.04.14-.11.17-.2.3-.69,0-1.29-.89-1.8-.48-.27-.98-.35-1.5-.25-1.35.27-2.34.36-3,.26-.64-.1-1.22-.43-1.63-.92l-2.54-3.09c-.05-.06-.11-.11-.17-.16-.5-.4-1.23-.31-1.63.19l-5.52,7.06s-.04.05-.05.07c-.35.53-.2,1.23.33,1.58l14.03,9.1c.46.3,1.08.22,1.45-.2.23-.25.39-.4.46-.46.11-.09.24-.15.38-.18.56-.14,1.13.2,1.26.75l2.03,7.92c.06.23.19.43.37.58.47.38,1.15.3,1.53-.17l4.26-5.43c.53-.69.56-1.65.05-2.37l-5.3-7.51c-.55-.77-1.55-1.09-2.45-.78-1.37.47-2.6.13-3.7-1.02-.04-.04-.07-.08-.1-.13-.35-.49-.23-1.17.26-1.51l1.9-1.35Z"/>
      <path class="cls-1" d="M258.36,256.8c.16-.56-1.24-1.48-4.22-2.76-.23-.11-.5-.11-.73,0-.43.2-.7.52-.83.96-.14.43-.09.85.16,1.25.12.22.34.38.59.43,3.19.63,4.87.66,5.04.12Z"/>
      <path class="cls-1" d="M298.16,298.6c.12-.06.17-.2.11-.32-1-2.77-1.78-3.62-2.33-2.54-.13.24-.09.54.09.74l1.82,2.03c.07.1.2.14.31.09Z"/>
      <path class="cls-1" d="M256.48,268.86c2.07-.92,4.31-2.34,6.75-4.25.1-.08.13-.2.09-.38s-.11-.28-.23-.31c-2.97-.85-5.59-1.31-7.85-1.37-.02,0-.03,0-.05,0-.6,0-1.08.51-1.07,1.12,0,.1.13.86.42,2.29.29,1.43.45,2.19.48,2.28,0,.02.02.04.02.06.25.56.9.8,1.45.55Z"/>
      <path class="cls-1" d="M166.56,171.15l-6.49,1.85c-1.03.29-1.66,1.35-1.42,2.41,1.19,5.04,8.43,9.31,12.89,12.48.22.15.5.2.77.13.48-.13.75-.62.61-1.09l-4.13-14.52c-.28-.96-1.28-1.52-2.24-1.25Z"/>
      <path class="cls-1" d="M290.24,299.93c-4.61-5.99-9.94-12.18-10.11-13.67-.04-.35-.23-.66-.54-.83-.53-.31-1.22-.13-1.53.4-.83,1.41-1.47,3.39-1.91,5.95-.11.64.3,1.24.92,1.37.89.2,1.68.22,2.34.05.86-.2,1.46.03,1.8.7.51,1,4.15,8.73,10.9,23.19,1.01,2.16,3.49,3.19,5.72,2.38l1.48-.55c.12-.04.23-.09.34-.15,1.28-.68,1.77-2.27,1.09-3.55-1.11-2.1-1.53-3.72-1.25-4.87.2-.82-.23-1.66-1.02-1.98-.3-.13-2.29-2.02-5.96-5.68-.43-.43-1.19-1.35-2.28-2.77Z"/>
      <path class="cls-1" d="M307.83,320.23c.22-.18.33-.45.29-.73-.07-.48-.55-.84-1.07-.81-.06,0-.5.23-1.32.72-.13.08-.23.21-.26.35-.07.3.12.59.42.66.89.19,1.53.13,1.94-.2Z"/>
      <path class="cls-1" d="M201.04,213.42c-.4-1.41-1.36-2.37-2.16-2.15-.79.22-1.11,1.55-.71,2.96.4,1.41,1.36,2.37,2.16,2.15s1.11-1.55.71-2.96Z"/>
      <path class="cls-1" d="M247.04,260.35c-.06-.03-.14-.02-.18.03-.31.28-.29.54.07.79.1.06.23.07.33.02.19-.08.27-.3.19-.49-.07-.14-.2-.26-.4-.35Z"/>
      <path class="cls-1" d="M229.07,249.05l.07-.09c.86-1.07-4.49-7.09-11.97-13.48l-.26-.23s0,0,0,0c-.18-.15-.45-.13-.6.05l-2.75,3.22c-.15.17-.13.43.04.59l.26.23s.02.02.04.03c7.5,6.41,14.3,10.74,15.18,9.68Z"/>
      <path class="cls-1" d="M139.95,163.47c-.53-.19-1.1.08-1.28.6l-3.52,9.87c-.05.15-.05.31,0,.46.13.38.54.58.91.45l11.6-4.21c.11-.04.2-.11.27-.2.21-.27.15-.66-.12-.87l-7.59-5.95c-.08-.06-.18-.12-.28-.15Z"/>
      <path class="cls-1" d="M157.82,184.16c.71-.31.52-1.82-.57-4.53-.3-.73-.85-.91-1.67-.55-.83.36-1.08.9-.74,1.6,1.27,2.64,2.26,3.8,2.98,3.48Z"/>
      <path class="cls-1" d="M254.4,282.68c.55.09,1.17-.93,1.39-2.28.22-1.35-.06-2.51-.61-2.6-.55-.09-1.17.93-1.39,2.28-.22,1.35.06,2.51.61,2.6Z"/>
      <path class="cls-1" d="M171.38,194.44c-.17-.2-.49-.22-.72-.04-.46.36-.71.86-.74,1.52-.02.3.13.6.38.77.36.24.82.14,1.02-.22.25-.43.3-1.02.16-1.8-.01-.09-.05-.17-.11-.23Z"/>
      <path class="cls-1" d="M265.98,301.25l-4.82-16.93c-.04-.14-.12-.27-.23-.38-.34-.33-.86-.32-1.18.01-2.24,2.29-4.1,4.7-5.14,8.48-.82,2.9-1.74,5.39-2.77,7.46-.18.32-.09.72.21.92.32.22.75.14.97-.18l1.02-1.3c.1-.13.22-.24.36-.33.68-.43,1.58-.22,2.01.46,2.88,4.58,5.94,5.59,9.17,3.02.37-.29.53-.78.4-1.24Z"/>
      <path class="cls-1" d="M187.42,219.98c.68.34,1.51.06,1.85-.62.6-1.21,1.53-1.76,2.8-1.65.02,0,.04,0,.06,0,.42,0,.76-.34.76-.77v-.6s0,0,0,0c0-.43-.35-.77-.77-.76h-8.82c-.29-.02-.56.13-.7.37-.22.38-.1.86.27,1.09l4.41,2.88s.08.05.13.07Z"/>
      <path class="cls-1" d="M199.2,225.06c-.12.33.03.69.46,1.08.07.06.17.08.26.05.4-.1.58-.31.55-.63-.03-.28-.2-.56-.44-.72-.34-.23-.71-.13-.82.21Z"/>
      <path class="cls-1" d="M271.12,297.04c-.17-.06-.35-.08-.53-.03-.47.12-.76.6-.64,1.07.19.71.4,1.46.63,2.24.23.79.46,1.54.68,2.24.06.18.18.34.33.45.4.28.95.19,1.23-.21.69-.96.86-2.05.51-3.27-.36-1.21-1.09-2.04-2.2-2.49Z"/>
      <path class="cls-1" d="M214.95,256.11l1.98-5.52c.84-2.34-.15-4.94-2.33-6.13-5.75-3.16-10.11-6.38-13.09-9.65-.07-.07-.14-.13-.21-.18l-11.63-7.54s-.09-.05-.15-.07c-.35-.12-.72.06-.84.41l-2.84,7.94s-.03.09-.04.14c-.1.5.23.99.74,1.09l11.47,2.25s.06.01.09.02c.34.12.51.49.39.82l-4.41,12.33s-.02.07-.03.11c-.06.35.17.68.51.74l19.36,3.82c.43.09.87-.15,1.02-.57Z"/>
      <path class="cls-1" d="M272.92,333.68c.34.48.93.72,1.51.6l10.17-2.07s0,0,0,0c.8-.17,1.31-.95,1.14-1.74l-3.14-15.38s0,0,0,0c-.17-.8-.95-1.31-1.74-1.14l-10.16,2.06c-.34.07-.65.27-.86.55l-4.08,5.2c-.4.51-.42,1.23-.04,1.76l7.19,10.18Z"/>
      <path class="cls-1" d="M231.93,307.03c.21.67.93,1.04,1.59.83l7.08-2.19c1.14-.35,1.96-1.34,2.08-2.53.12-2.12,2.98-4.96,3.98-7.61,1.32-3.51,2.9-6.61,4.75-9.31.07-.1.12-.21.15-.34.1-.49-.21-.97-.69-1.07-5.73-1.28-4.64,3.39-6.09,6.62-.05.12-.16.21-.28.24-.22.05-.44-.09-.49-.3l-.46-1.63c-.04-.13-.11-.25-.2-.36-.34-.38-.92-.41-1.3-.07-2.17,1.94-4.91,3.45-8.2,4.51-1.19.38-2,1.49-2.01,2.73v10.09c.01.13.03.26.07.38Z"/>
      <path class="cls-1" d="M118.52,206.43l1.8-6.07c.08-.25.28-.44.53-.5.39-.1.79.14.89.54.06.29.21,1.25.46,2.9.35,2.33,2.47,3.1,1.98,5.78,0,.01,0,.02,0,.04-.12.75.4,1.46,1.15,1.58,5.09.82,11.9,2.16,20.43,4.02.91.2,1.77-.2,2.58-1.2.04-.04.01-.27-.09-.69-.05-.17-.04-.35.03-.52l4.74-13.28c.27-.77.02-1.63-.63-2.14l-8.48-6.65c-.66-.52-1.54-.66-2.33-.38l-15.52,5.65c-.48.17-1,.17-1.47,0-1.14-.41-1.74-1.66-1.33-2.8l4.39-12.28c.18-.49.02-1.04-.39-1.35l-25.07-19.65c-.87-.68-1.78-1.29-2.73-1.82l-18.01-9.96c-.15-.08-.28-.19-.37-.33-.35-.5-.22-1.2.28-1.56l6.76-4.75c.17-.12.3-.29.37-.49.19-.54-.08-1.13-.62-1.32l-8.46-3.02c-.08-.03-.17-.05-.26-.05-.42,0-.76.35-.76.77v6.54c0,.27-.1.52-.29.71-.4.42-1.06.44-1.48.04-1.62-1.57-3.38-2.67-5.26-3.31-.67-.23-1.41-.12-1.99.3l-8.61,6.08c-.61.42-.96,1.11-.96,1.85v45.34c0,.74.53,1.38,1.26,1.52l56.39,11.1c.48.09.96-.19,1.09-.65Z"/>
      <path class="cls-1" d="M183.06,231.25c-.29.29-.29.77,0,1.07.29.29.77.29,1.07,0s.29-.77,0-1.07-.77-.29-1.07,0Z"/>
      <path class="cls-1" d="M216.67,266.81c.32.39.96.72,1.93.99.92.26,1.38-.08,1.39-1.03,0-.31-.65-.65-1.95-1.02-.29-.08-.62-.06-.9.05-.52.2-.73.65-.46,1.01Z"/>
      <path class="cls-1" d="M156.07,210.27c-.38.17-.49.36-.33.56.04.04.27.18.69.4.14.07.32.04.44-.06.16-.14.17-.37.02-.52-.33-.35-.6-.47-.82-.38Z"/>
      <path class="cls-1" d="M149.56,213.49c-.15.23-.08.54.15.69l9.81,5.77c.23.13.5.16.75.07.48-.16.74-.68.58-1.17l-.82-2.23c-.33-.93-1.13-1.62-2.1-1.81l-7.88-1.55c-.19-.03-.39.06-.49.23Z"/>
      <path class="cls-1" d="M232.54,290.39c.2-.3.12-.72-.18-.92-.19-.12-.47-.17-.83-.16-.29.02-.58.11-.82.26-.52.33-.66.83-.31,1.13.45.4,1.1.36,1.94-.12.08-.05.16-.12.21-.2Z"/>
      <path class="cls-1" d="M198.64,262.32c.2-.1.36-.21.47-.34.13-.13.13-.34,0-.47-.13-.13-.34-.13-.47,0-.14.1-.19.34-.14.72,0,.01,0,.03,0,.04.02.05.08.07.14.05Z"/>
      <path class="cls-1" d="M159.52,295.92c.02.06.04.11.06.17.23.45.78.64,1.24.41l8.26-4.35s.06-.03.1-.04c.29-.08.6.08.68.38l2.98,10.51c.02.06.04.12.07.17.22.42.75.59,1.17.36l14.56-7.66s.08-.04.12-.05c.3-.08.62.1.7.4l1.81,6.34c.02.08.05.15.09.22.3.57,1,.79,1.57.49l11.16-5.87c1.02-.53,1.53-1.72,1.21-2.83l-4.19-14.74c-.09-.34-.32-.63-.63-.81l-4.31-2.54c-.94-.56-1.64-1.46-1.94-2.51l-5.39-18.99c-.17-.59-.55-1.08-1.07-1.38l-15.87-9.34c-.63-.37-1.44-.22-1.89.35l-6.65,8.5c-.35.45-.47,1.05-.31,1.61l1.28,4.48c.07.24.03.49-.08.7-.25.44-.8.6-1.23.35l-8.71-4.81c-.18-.1-.37-.18-.57-.25-1.69-.55-3.51.39-4.06,2.1l-.07.17c-.03.64.03,1.28.2,1.91l9.74,36.52Z"/>
      <path class="cls-1" d="M251.95,320.51c.18-.15.28-.39.3-.74,0-.03,0-.07-.02-.1-.05-.13-.2-.2-.33-.15-.22.1-.37.24-.46.43-.06.14-.05.31.02.44.11.2.33.25.49.12Z"/>
      <path class="cls-1" d="M301.27,390.45c-5.81-13.49-13.58-25.22-17.93-38.3-.02-.08-.06-.15-.09-.22-.36-.67-1.2-.93-1.89-.56l-6.86,3.61c-1.89.99-2.9,3.12-2.47,5.21l1.71,8.35c.05.24-.02.48-.18.66-.27.29-.73.29-1.02.02-.69-.64-1.36-1.58-1.99-2.8-.03-.07-.08-.14-.13-.2-.32-.37-.89-.4-1.26-.08-2.68,2.32-1.45,8.92-1.25,12.16,0,.06.01.13.03.19.13.45.6.71,1.05.58l4.95-1.41s.06-.01.09-.02c.69-.14,1.36.3,1.5.98l1.21,5.95c.21.98-.05,2-.69,2.77-5.1,6.17-3.66,12.2-3.83,17.84-.01.31-.27.55-.57.55h-.6c-.06,0-.1-.05-.1-.1l-1.46-9.43c-.02-.11-.05-.23-.09-.33-.35-.97-1.42-1.46-2.4-1.11-2.83,1.05-4.79,1.51-6.94-1.32-3.53-4.68-7.21-8.77-11.03-12.28-.87-.79-1.37-1.91-1.37-3.09l.13-27.19c0-.25-.05-.5-.13-.73l-1.29-3.74c-.09-.26-.09-.55,0-.81.23-.63.93-.96,1.58-.74l3.5,1.26c.12.04.24.06.36.06.58,0,1.05-.47,1.05-1.05v-17.03c0-.62-.44-1.16-1.04-1.28l-5.73-1.12c-.61-.12-1.21.23-1.41.81-1.5,4.6-4.71,13.39-3.92,16.4,1.05,4.02-3.85,5.44-6.91,5.43-.05,0-.09,0-.14,0-.61.07-1.04.62-.96,1.23l.16,1.35c.13,1.03-.26,2.06-1.04,2.76l-3.71,3.32c-.49.44-.86.99-1.08,1.6l-4.34,12.12c-.33.95-1.26,1.54-2.26,1.44-1.18-.12-2.04-1.18-1.92-2.37l3.48-38.17c.01-.11,0-.21,0-.32-.1-.8-.83-1.37-1.64-1.27l-7.75.92s-.02,0-.02,0c-1.18.16-2.01,1.24-1.85,2.42.43,3.27-1.43,6.3-1.54,9.92-.12,4.5.1,9.29.68,14.38,0,.06-.01.11-.05.13l-.64.46c-.09.07-.19.1-.3.1-.27,0-.49-.23-.49-.5v-26.5c-.01-.05-.02-.11-.03-.16-.09-.53-.58-.89-1.11-.8l-5.17.85-12.5,2.6c-.16.03-.32.03-.48-.02-.5-.15-.77-.68-.62-1.18.56-1.9.32-2.86-.74-2.88-2.2-.06-5.27.1-9.21.48-.89.08-1.74.47-2.4,1.09-1.56,1.48-3.15,1.81-4.75,1-.14-.07-.28-.11-.44-.13-.65-.06-1.22.42-1.28,1.07l-.08.83c-.06.65-.5,1.2-1.12,1.38-11.64,3.6-18.61,6.14-20.9,7.62-5.56,3.59-11.63,8.02-18.19,13.3-4.79,3.85-8.63,8.99-11.51,15.42-.28.64-.43,1.34-.44,2.06v34.65c0,.8.26,1.59.73,2.25l2.66,3.78c.51.72,1.33,1.14,2.2,1.13h56.7c.95,0,1.87-.36,2.57-1l24.12-22.4c.37-.35.59-.83.63-1.33l1.51-28.21s0-.02,0-.02c.02-.18.18-.32.38-.3h.01s0-.01,0-.01c.19,0,.34.17.33.36l-1.43,27.95c-.04.77.32,1.52.95,1.99.28.21.42.32.43.33.4.62.5,1.38.27,2.07l-4.95,14.72c-.06.18-.02.37.11.51.19.21.52.23.73.04l8.54-7.66c.13-.12.31-.18.49-.16.33.04.57.34.53.68l-.42,4.64c-.12,1.19-.67,2.29-1.56,3.1l-14.04,12.58c-.16.15-.26.36-.26.58-.01.46.35.84.81.85h17.18c.54-.01,1.02-.33,1.22-.82l7.38-17.25c.3-.71.46-1.47.47-2.24v-3.87c-.02-.18-.08-.35-.2-.49-.28-.32-.77-.36-1.09-.08l-6.22,5.6c-.19.19-.48.24-.73.14-.35-.14-.52-.54-.38-.89l4.1-11.47c.05-.15.15-.28.28-.37.33-.23.79-.15,1.03.18l8.91,12.61c.34.49.9.79,1.5.79,4.14.08,8.38.08,12.72.01,1.15-.02,1.44.72.87,2.23-.06.17-.08.35-.06.53.07.63.63,1.07,1.25,1l22.66-2.73c.6-.08,1.18-.32,1.65-.72,1.97-1.66,3.95-4.12,5.93-7.38.15-.24.4-.4.68-.44.52-.07,1.01.29,1.08.81l2.12,17.57c.1.83-.13,1.67-.65,2.32l-7.51,9.6c-.5.63-.47,1.53.07,2.12l6.93,7.71c.42.48.44,1.18.07,1.68l-3.58,4.54c-.23.3-.24.71-.03,1.02l7.23,10.22c.56.8,1.54,1.19,2.5.99l15.08-3.07s0,0,0,0c.67-.14,1.1-.79.96-1.46l-1.61-7.92c-.03-.13-.03-.27-.02-.41.07-.77.75-1.33,1.51-1.26l2.53.23c.08,0,.17,0,.25,0,.66-.08,1.13-.67,1.05-1.33l-1.33-10.91s0-.08,0-.12c0-.53.44-.95.97-.95h13.63c.19-.01.37-.06.53-.15.53-.3.73-.97.43-1.5-7.88-13.87-14.39-26.76-19.52-38.66Z"/>
      <path class="cls-1" d="M220.1,311.82c.66.06,1.24-.42,1.3-1.08l1-10.98c.02-.17-.02-.33-.09-.48-.22-.42-.74-.59-1.17-.37l-9.73,5.12c-1.25.65-1.97,2-1.82,3.41.25,2.46-.34,4.4-1.77,5.83-.08.08-.13.2-.13.31,0,.24.2.44.44.44,2.67-.07,4.96-.71,6.86-1.91.67-.43,1.47-.62,2.27-.55l2.83.25s0,0,.01,0Z"/>
      <path class="cls-1" d="M319.3,401.9c-.1-.06-.23-.03-.3.07l-.05.08s0,0,0,0c-.69,1.09.2,2.9,1.98,4.03l.43.27s0,0,0,0c1.78,1.14,3.79,1.18,4.49.09l.05-.08s0,0,0-.01c.06-.11.02-.24-.09-.3l-6.52-4.15Z"/>
      <path class="cls-1" d="M150.21,238.95c.37.49.79.59,1.26.27.43-.31.75-.69.94-1.12.04-.1.07-.21.07-.32.01-.48-.36-.87-.82-.88-1.07-.03-2.32.86-1.45,2.04Z"/>
      <rect class="cls-1" x="221.45" y="325.24" width="14.7" height="4.13" rx="1.29" ry="1.29" transform="translate(-112.23 535.09) rotate(-86.4)"/>
      <path class="cls-1" d="M215.98,326.74c-1.66.15-2.97.66-2.93,1.14.04.49,1.42.76,3.09.62,1.66-.15,2.97-.66,2.93-1.14-.04-.49-1.42-.76-3.09-.62Z"/>
      <path class="cls-1" d="M204.68,328.45c.03-3.33.1-6.59.21-9.77.02-.63-.17-1.24-.52-1.74-.42-.57-.46-1.24-.13-2.01.04-.1.07-.21.08-.32.05-.57-.37-1.07-.94-1.12l-29.18-2.67c-.67-.06-1.34.07-1.94.38l-12.24,6.43s-.07.03-.1.04c-.32.1-.66-.08-.76-.41l-15.29-53.78c-.13-.47-.52-.83-1-.92-6.84-1.41-12.87-2.42-18.08-3.05-4.92-.6-10.25-2.67-15.29-3.72-.06-.01-.12-.02-.18-.02-.56,0-1.02.43-1.02.98v102.62c0,.2.07.38.2.53.29.34.81.37,1.14.08,13.99-12.12,28.74-23.15,44.25-33.1.97-.63,2.05-1.07,3.19-1.29l44.94-9.18c.09-.02.17-.02.26,0,.34.07.55.4.48.74-.99,4.18-1.44,8.57-1.35,13.15,0,.25.23.57.68.96,1.71-.86,2.57-1.8,2.59-2.83Z"/>
      <path class="cls-1" d="M261.59,385.06c-.12-.34-.49-.51-.82-.39l-.7.26s0,0-.01,0c-.86.32-1.3,1.27-.98,2.13l1.98,5.44c.12.27.4.44.7.43.41-.02.72-.36.7-.77l-.83-6.95c0-.05-.02-.11-.04-.16Z"/>
      <path class="cls-1" d="M247.08,420.7c-.06-.06-.13-.11-.2-.14-.31-.13-.67,0-.8.31l-6,13.56c-.03.08-.05.16-.05.24,0,.34.27.61.61.61h18.24c.15-.01.29-.07.4-.17.25-.23.27-.61.04-.86l-12.24-13.54Z"/>
      <path class="cls-1" d="M279.13,454.47c-.11-.14-.28-.22-.46-.23-.35-.01-.64.26-.65.6l-.56,10.46s0,0,0,0c-.03.56.41,1.03.96,1.06l10.2.56c.19,0,.37-.06.51-.18.31-.27.33-.74.06-1.04l-10.07-11.24Z"/>
      <path class="cls-1" d="M207.52,424.41h.11c.9,0,1.64.73,1.64,1.64v19.93c0,.91-.73,1.64-1.64,1.64h-.11c-.9,0-1.64-.73-1.64-1.64v-19.93c0-.9.73-1.64,1.64-1.64Z" transform="translate(-232.79 237.83) rotate(-40.31)"/>
      <path class="cls-1" d="M111.88,362.05l-.12-.07s0,0,0,0c-1.06-.67-3.01.54-4.36,2.7l-.29.47s0,.01-.01.02c-1.34,2.16-1.56,4.44-.49,5.1l.13.08c.13.08.3.04.38-.09l4.86-7.83c.08-.13.04-.3-.09-.38Z"/>
      <path class="cls-1" d="M111.4,419.88c-.67.25-.78,1.51-.33,3.76.06.25.19.47.39.63.45.35.99.4,1.63.17.63-.23,1.01-.63,1.12-1.17.05-.25.01-.51-.12-.74-1.13-2.01-2.03-2.9-2.7-2.64Z"/>
    </g>
  </g>
</svg>