<?xml version="1.0" encoding="UTF-8"?>
<svg id="Camada_2" data-name="Camada 2" xmlns="http://www.w3.org/2000/svg" viewBox="0 0 749.63 421.89">
  <defs>
    <style>
      .cls-1 {
        fill: #fff;
      }

      .cls-2 {
        fill: #fc4612;
      }
    </style>
  </defs>
  <g id="Camada_1-2" data-name="Camada 1">
    <g>
      <path class="cls-2" d="M36.87,186.38v111.11l-1.54,1.54H0V29.19l1.54-1.54h49.16c16.62,0,32.3,10.81,38.59,25.93,7.11,17.12,7.03,78.73,2.59,97.17-2.41,10-7.12,17.69-13.01,25.92,4.6,38,12.8,75.83,17.26,113.8.3,2.53,1.46,7.04-.36,8.56h-35.84l-15-110.96-1.53-1.54-6.52-.14ZM36.87,146.44c12.53.42,19.35-1.27,20.52-14.81,1.1-12.83.97-35.28,0-48.21-1.17-15.78-6.7-14.35-20.53-15.83v78.85Z"/>
      <path class="cls-2" d="M170,29.7c.64-.73,7.02,3.92,8.1,4.7,9.87,7.1,19.01,15.43,28.78,22.65l-.04,181.03-2.08,3.04-77.12,49.56c-11.31-10.4-14.22-27.58-15.04-42.3-3.99-71.05,3.12-145.77,0-217.2l1.59-3.53h33.79l1.54,1.54v222.23c0,.75,3.24,7.38,4.13,8.16,6.07,5.24,16.35,1,16.35-7.13V29.7Z"/>
      <path class="cls-2" d="M572.46,134.16c5.54.06,16.67,1.24,18.98-5.06,2.7-7.37,2.16-37.52,1.54-46.69-.25-3.73-1.85-6.94-2.01-10.62l33.7-17.51c5.99,20.23,6.47,44.95,5.18,66.1-.23,3.85-.55,13.36-3.87,14.57l-54.54,9.45c2.05.25,4.52-.42,6.46.03.83.19.27,1.85,2.17,2.1,3.65.49,10.4-.06,13.64-1.89,2.06-1.17,1.64-2.81,4.47-3.68,10.94-3.36,25.41-2.78,36.74-5.77,1.16,15.67-4.99,29.42-14.33,41.48l18.44,122.37h-37.89l-15.29-112.2-5.54-.29-1.7,1.38v111.11h-35.33l-1.54-1.54v-147.47c0-.22,1.53-1.15,1.02-1.53l-5.61,1-1.33-1.49.72-44.85,35.93-20.21v51.2Z"/>
      <path class="cls-2" d="M749.63,299.03h-36.87l-4.1-47.11h-22.53l-4.1,47.11h-35.84l17.9-166.95,31.25-5.09-6.14,84.99h16.39l-6-84.35,1.56-1.5c8.64-.22,18.6-3.66,26.98-3.84.9-.02,1.76-.81,2.58.55l18.91,176.19Z"/>
      <path class="cls-2" d="M262.17,155.66c8.23-.08,17.83,2.25,20.04-8.12,2.37-11.1.46-21.61.4-32.29-.06-10.96,1.4-26.57-.05-36.82-2.28-16.09-17.96-6.7-21.96-10.81l-17.88-39.97c27.63.31,60.09-5,72.46,26.36,7.53,19.09,7.35,78.84,4.06,99.84-2.84,18.17-11.81,35.79-30.61,41.07-2.89.81-9.98,3.33-10.61-.4-5.03,3.01-10.24,2.03-15.86,2.1l-1.47,8.25-35.39,22.47V70.66l36.87,27.65v57.35Z"/>
      <path class="cls-2" d="M430.12,165.9c-3.81-.36-7.35,1.22-11,1.81-1.61.26-3.59.85-1.24-1.25l43.98-26.16-8.18,22.53,12.28-2.05c1,25.5-1.3,51.97-.04,77.36.2,3.99.63,10.41,1.16,14.2,1.56,11.11,16.11,12.46,18.88,1.66,4.01-15.62,2.01-57.37,1.55-75.34-.13-5-2.51-14.58-.93-19.27.6-1.77,3.23-2.03,4.76-2.41,9.83-2.42,21.83-2.78,31.97-4.39v104.97c0,50.43-74.37,64.25-89.62,13.84-1.04-3.42-3.57-12.86-3.57-15.88v-89.61Z"/>
      <path class="cls-2" d="M359.97,27.65l23.55,79.89c.39,0,1.45-6.61,1.52-7.7,1.48-20.39,1.35-41.05,3.1-61.42.27-3.18.78-8.54,2.55-10.76h25.6l1.54,1.54v39.43h-25.09l-1.54,1.54v228.88h-35.33l-2.05-230.42h-25.09V29.19l1.54-1.54h29.7Z"/>
      <path class="cls-2" d="M430.12,150.54V29.19l1.54-1.54h33.79l1.54,1.54v101.38c-2.43,2.46-5.59,4.08-8.53,5.81-6.57,3.87-17.15,10.15-23.84,13.03-1.5.64-2.73,1.44-4.5,1.14Z"/>
      <polygon class="cls-2" points="745.54 20.48 745.54 113.67 709.69 118.79 709.69 20.48 745.54 20.48"/>
      <path class="cls-2" d="M591.41,27.65c2.39.19,7.29.99,9.79,1.48,11.49,2.25,21.27,8.34,26.57,18.98l-37.65,20.3-10.44-.78-.55,4.03-36.36,19.49V29.19l1.54-1.54h47.11Z"/>
      <path class="cls-2" d="M687.16,23.55l20.49,97.29-13.31,2.05c-.74-4.47-.61-9.28-1.15-13.7-.18-1.49-.53-6.2-1.92-6.77l-2.02,21.03-29.74,4.56,12.29-97.55,15.35-6.9Z"/>
      <polygon class="cls-2" points="523.31 27.65 523.31 99.85 487.47 119.82 487.47 29.19 489 27.65 523.31 27.65"/>
      <path class="cls-2" d="M207.88,245.79c1.09,35.41-14.99,62.8-53.8,59.43-8.86-.77-15.59-4.93-23-9.27l76.79-50.16Z"/>
      <path class="cls-2" d="M263.19,217.11v80.39l-1.54,1.54h-35.33v-31.23c12.56-15.35,22.38-33.93,34.52-49.4.66-.84-.04-1.87,2.34-1.3Z"/>
      <polygon class="cls-2" points="232.46 18.43 268.3 101.38 222.42 64.84 222.16 22.13 232.46 18.43"/>
      <polygon class="cls-2" points="383.52 0 379.93 81.92 363.55 25.09 363.55 0 383.52 0"/>
      <polygon class="cls-2" points="517.16 111.63 517.16 145.42 489.51 151.56 489.51 124.94 517.16 111.63"/>
      <polygon class="cls-2" points="210.95 55.3 160.79 15.37 200.78 17.86 210.95 55.3"/>
      <polygon class="cls-2" points="226.32 234 230.08 230.6 262.17 209.95 229.83 254.92 226.32 257.05 226.32 234"/>
      <path class="cls-2" d="M471.08,136.2v19.46l-9.22,1.03c.84-6.96-.41-20.78,9.22-20.49Z"/>
    </g>
    <g>
      <rect class="cls-1" y="379.27" width="30.93" height="42.62"/>
      <polygon class="cls-1" points="25.35 318.93 0 318.93 0 361.31 30.93 361.31 30.93 336.89 149.36 336.89 149.36 318.93 30.93 318.93 25.35 318.93"/>
      <rect class="cls-1" x="35.35" y="361.31" width="96.36" height="17.96"/>
      <rect class="cls-1" x="169.57" y="379.27" width="30.93" height="42.62"/>
      <rect class="cls-1" x="169.57" y="318.93" width="30.93" height="48.37"/>
      <rect class="cls-1" x="229.15" y="379.27" width="30.93" height="42.62"/>
      <polygon class="cls-1" points="354.94 395.21 269.29 318.93 260.08 318.93 251.88 318.93 229.15 318.93 229.15 367.3 260.08 367.3 260.08 343.24 349.07 421.89 354.94 421.89 357.35 421.89 385.87 421.89 385.87 379.27 354.94 379.27 354.94 395.21"/>
      <rect class="cls-1" x="354.94" y="318.93" width="30.93" height="48.37"/>
      <rect class="cls-1" x="600.27" y="318.93" width="30.93" height="42.62"/>
      <polygon class="cls-1" points="631.2 403.93 631.2 379.51 600.27 379.51 600.27 421.89 625.62 421.89 631.2 421.89 749.63 421.89 749.63 403.93 631.2 403.93"/>
      <polygon class="cls-1" points="459.21 387.89 424.27 387.89 406.04 421.89 440.98 421.89 452.41 400.58 491.51 400.58 491.51 387.89 459.48 387.89 459.21 387.89"/>
      <polygon class="cls-1" points="531.58 387.89 531.31 387.89 499.28 387.89 499.28 400.58 538.38 400.58 549.81 421.89 584.75 421.89 566.52 387.89 531.58 387.89"/>
      <polygon class="cls-1" points="524.89 375.43 559.83 375.43 535 329.14 529.52 318.93 495.39 318.93 461.27 318.93 455.79 329.14 430.96 375.43 465.9 375.43 490.73 329.14 495.39 329.14 500.06 329.14 524.89 375.43"/>
    </g>
  </g>
</svg>