<?xml version="1.0" encoding="UTF-8"?>
<svg id="Camada_2" data-name="Camada 2" xmlns="http://www.w3.org/2000/svg" viewBox="0 0 799.01 234.65">
  <defs>
    <style>
      .cls-1 {
        fill: #010101;
      }
    </style>
  </defs>
  <g id="Camada_1-2" data-name="Camada 1">
    <g>
      <path class="cls-1" d="M158.19,230.76c-10.66.23-15.72-9.12-17.05-18.86-1.34-9.8.59-21.07,2.92-29.22,7.47-26.15,19.18-50.75,32.22-74.24,11.67-21.02,24.07-41.86,37.98-63.01,9.33-14.18,15.66-23.99,19-29.42,1.18-1.92,1.98-3.84,2.97-6.08,1.58-3.54,1.76-7.73-2.3-9.58-3.68-1.68-10.84,3.08-14.02,5.49-5.67,4.3-12.25,9.89-19.74,16.76-25.38,23.3-47.56,46.52-73.88,73.64-8.62,8.87-17.03,17.82-26.18,25.94-.14.12-.34.16-.52.09-.26-.1-.39-.4-.29-.66,6.12-15.19,12.91-30.04,20.36-44.55,7.19-13.99,12.23-24.02,15.11-30.1,2.28-4.83,5.52-12.06,3.92-16.38-3.25-8.8-14.99.75-18.11,3.92-4.09,4.17-7.9,7.48-12.04,11.96-10.15,10.98-21.03,23.52-32.64,37.61-18.43,22.37-36.15,45.32-53.14,68.86-8.07,11.18-14.85,21.4-20.33,30.65-2.55,4.32-4.05,9.19.47,11.78,1.96,1.12,6,.72,7.66-.39,5.49-3.69,10.25-8.06,14.28-13.13.04-.05.08-.1.11-.16.59-.91.34-2.11-.55-2.68-.13-.08-.62-.05-1.48.09-2.07.35-3.7.8-4.89,1.35-.09.04-.18.04-.27,0-.16-.08-.23-.27-.15-.43,4.73-9.25,10.24-18.32,16.53-27.21,17.89-25.27,37-50.33,57.32-75.18,10.35-12.66,21.67-25.08,33.97-37.26.93-.93,1.96-1.76,3.09-2.51.1-.06.22-.07.32-.03.18.07.26.28.19.46-1.31,2.93-3.1,6.53-5.37,10.82-8.55,16.1-15.64,29.67-21.27,40.7-3.93,7.68-7.39,15.46-10.4,23.34-2.03,5.32-5.54,15.41.07,19.2,5.13,3.46,11.39-2.45,14.74-5.87,5.15-5.25,13.12-13.78,23.91-25.59,21.05-23.03,41.08-43.57,60.11-61.64,10.56-10.02,21.79-20.12,33.93-28.48.11-.07.24-.07.35,0,.16.1.2.3.11.45-9.97,14.85-18.36,27.42-25.19,37.73-15.38,23.21-28.89,46.11-40.53,68.7-7.62,14.79-14.01,29.64-19.16,44.55-5.16,14.94-8.56,30.56-7.28,46.39.41,4.98,1.69,9.57,3.56,13.58,3.63,7.81,12.01,14.35,20.87,12,1.43-.38,2-1.25,1.7-2.62-.1-.46-.52-.79-.99-.78Z"/>
      <path class="cls-1" d="M606.47,163.07c-4.61-1.64-9.21-2.96-13.79-3.96-31.47-6.91-63.88-9.96-95.94-10.29-.11,0-.21-.03-.3-.09-.26-.17-.34-.52-.17-.78,15.91-24.46,32.75-50.03,50.54-76.71,4.81-7.21,9.09-14.19,12.86-20.94.17-.29.44-.51.77-.59,2.92-.73,6.4-1.3,10.45-1.7,2.8-.27,9.32-.93,19.57-1.98,25.37-2.59,51.52-3.66,78.46-3.19,14.56.25,29.4,1.56,44.51,3.93.23.04.44-.12.48-.35.08-.49-.16-.86-.72-1.11-2.31-1.01-4.83-1.72-7.57-2.13-7.53-1.12-14.6-1.89-21.2-2.32-15.2-.98-29.95-1.33-44.25-1.06-17.99.35-30.9.81-38.75,1.38-13.55.97-26.23,2.16-38.02,3.55-.06,0-.13,0-.19-.01-.28-.07-.44-.36-.37-.64.93-3.28.12-5.81-2.42-7.58-.71-.5-1.97-.51-3.77-.04-.26.07-.48.25-.6.49l-4.13,8.35c-.12.26-.37.44-.65.48-15.25,2.21-26.87,3.98-34.84,5.32-17.25,2.91-34.97,6.69-53.16,11.36-7.87,2.01-16.38,4.81-25.55,8.38-3.42,1.33-5.81,3.08-7.16,5.23-1.81,2.87-1.7,5.63,1.34,7.5,2.35,1.44,6.33-1.2,8.9-2.6,5.46-2.96,13.49-6.29,20.89-8.87,20.79-7.25,41.59-12.79,62.4-16.63,11.98-2.21,20.05-3.64,24.22-4.27.06,0,.13,0,.18.04.13.08.16.25.09.37l-60.14,96.6c-.04.06-.1.09-.17.09-27-.06-54.01.59-82.54,2.98-17.71,1.48-29.98,2.67-36.83,3.56-6.74.88-15.42,1.78-22.95,2.76-12.96,1.69-26.82,3.86-41.58,6.52-6.97,1.26-10.86,1.95-11.67,2.08-4.05.63-14.25,2.73-30.6,6.32-23.04,5.06-45.31,11.2-66.8,18.43-3.58,1.21-7.69,3.01-12.34,5.41-4.08,2.11-8.11,5.04-7.89,10.01.17,3.95,3.73,5.26,6.92,3.54,18.74-10.07,38.52-17.73,60.61-24.34,27.26-8.16,54.82-14.58,82.69-19.27,16-2.69,24.56-4.35,37.24-5.91,16.34-2.01,25.65-3.15,27.92-3.42,17.28-2.04,36.52-3.56,57.73-4.55,13.36-.63,25.89-.84,37.59-.63.13,0,.26.04.37.11.34.21.45.66.24,1.01-4.55,7.34-9.28,15.72-14.2,25.15-3.52,6.76-6.05,12.32-7.6,16.69-.96,2.69-1.37,5.23-1.22,7.6.06.89.47,1.42,1.22,1.59.82.18,1.62-.26,1.78-.98.33-1.47,1-3.37,2-5.7,6.58-15.3,16.38-30.84,25.16-44.87.18-.29.5-.46.84-.47,4.93-.11,13.04.12,24.32.69,15.94.81,30.85,2.17,44.73,4.07,11.83,1.62,21.17,3.17,28.02,4.66,3.02.66,6.64,1.48,10.85,2.45.2.04.39.1.57.19l2.86,1.27c.06.03.12.05.18.06.57.14,1.15-.2,1.29-.77v-.04c.19-.6-.13-1.22-.71-1.43Z"/>
      <path class="cls-1" d="M266.77,133.37c.59,4.06,2.7,6.32,6.33,6.77,3.18.4,5.42.35,6.73-.16,8.27-3.19,15.91-7.65,22.94-13.38.09-.08.21-.09.32-.05.15.07.22.25.15.4-1.99,4.83-1.3,10.58,4.27,12.59,5.41,1.95,11.27-.8,15.82-3.59,6.32-3.88,11.91-7.88,16.76-11.99.11-.1.28-.13.42-.06.18.09.26.31.16.5-2.2,4.72-4.65,12.88,1.04,15.94,4.76,2.57,11.97-2.07,15.67-4.8,3.78-2.79,8.2-6.23,13.25-10.33.08-.07.18-.08.28-.04.13.06.19.21.13.34-2.24,5.45-2.28,12.55,4.83,13.7,2.43.39,6.19-.45,8.12-1.58,8.6-5.03,15.75-11.81,21.45-20.36.45-.66,1.14-1.12,1.93-1.25,7.47-1.23,14.09-2.31,19.84-3.24,7.31-1.19,17.3-1.73,29.96-1.63,1.6,0,6.1.48,13.49,1.41,4.79.6,8.91,1.89,12.34,3.88.14.08.3.14.47.15.64.07,1.21-.4,1.27-1.03v-.18c.13-1.09-.44-2.13-1.42-2.62-4.5-2.26-8.65-3.7-12.46-4.32-14.58-2.38-30.43-1.97-45.87.1-9.77,1.31-15.35,2.13-16.74,2.44-.03,0-.07.01-.1.01-.24,0-.43-.19-.43-.43-.03-5.65-3.21-9.84-9.12-9.29-2.48.23-5,1.51-7.55,3.84-.45.41-1.04.64-1.65.64h-.35c-.65,0-1.28.21-1.81.6-3.85,2.81-6.17,4.68-6.96,5.6-3.38,3.89-6.14,6.63-8.28,8.21-8.79,6.51-15.65,11.6-25.4,15.33-.2.08-.42.1-.64.06-.66-.12-1.1-.74-.98-1.4,1.04-5.79,4.35-11.86,7.15-17.42.39-.78.97-1.46,1.67-1.99,4.29-3.17,9.05-7.33,14.3-12.47,12.09-11.82,22.77-23.97,32.04-36.45,3.11-4.19,16.94-22.86,7.64-23.92-.35-.04-.7,0-1.04.11-2.01.69-3.82,1.67-5.45,2.95-5.43,4.29-10.47,8.92-15.11,13.89-12.3,13.21-23.46,27.54-33.49,43-4.02,6.19-6.6,10.82-7.73,13.87-.12.32-.3.61-.53.86-.91.99-2.38,2.26-4.43,3.81-6.3,4.77-12.76,8.8-19.38,12.1-3.12,1.55-6.2,2.55-9.24,2.98-1.44.21-2.76-.53-3-1.68-.53-2.52,1.89-6.57,3.5-9.33.22-.38.63-.63,1.08-.66,3.4-.23,6.53-1.16,9.4-2.78,4.81-2.72,16.65-10.51,13.74-17.04-.7-1.57-4.32-2.78-5.68-2.73-2.35.11-4.9,1.02-7.65,2.74-6.55,4.11-12.05,9.57-16.5,16.39-.17.26-.38.48-.62.67-5.87,4.28-12.04,7.94-18.52,10.99-3.33,1.58-8.55,3.82-12.17,3.46-.09,0-.18-.02-.27-.04-1.28-.28-2.1-1.55-1.82-2.84.77-3.5,2.24-6.79,4.42-9.88,4.62-6.52,11.7-14.29,19.32-17.24.22-.08.47-.06.67.07.34.23.43.68.21,1.03-.73,1.07-1.47,2.16-2.24,3.27-.1.15-.19.32-.24.5-.27.89.18,1.79,1,2.01,2.4.66,5.46-4.24,5.94-5.74,2.52-7.85-8.74-6.64-12.27-4.78-8.09,4.25-14.11,10.46-19.48,18.72-2.88,4.44-4.02,8.7-3.43,12.79ZM376.39,130.99c3.07-6.7,7.37-14.18,13.02-18.18,1.56-1.1,4.28-2.94,8.17-5.52,1.23-.81,2.45-1.3,3.66-1.48.17-.03.35-.01.51.04.61.19.96.84.77,1.46l-1.39,4.5c-.11.37-.44.64-.82.69l-3.94.51s-.06.01-.1.02c-.24.08-.36.33-.28.57.38,1.16,1.2,2.06,2.45,2.71.04.02.08.05.11.07.29.23.34.66.11.96-5.48,6.75-12.83,12.37-21.22,14.81-.32.09-.57.07-.74-.06-.41-.29-.51-.66-.31-1.1ZM372.06,86.28c8.26-11.53,17.59-22.08,27.99-31.67.37-.34.65-.43.86-.26.23.19.22.5-.04.93-7.4,12.05-15.96,23.24-25.69,33.57-10.59,11.25-16,16.77-16.23,16.58-.26-.21,4.11-6.59,13.11-19.15ZM315.31,119.52c4.17-5.46,8.96-9.84,14.38-13.13.6-.37,1.14-.53,1.61-.47.07,0,.14.03.21.07.27.15.37.49.21.76-2.83,5.1-10.35,10.62-16.24,13-.05.02-.1,0-.14-.02-.07-.05-.08-.14-.03-.21Z"/>
      <path class="cls-1" d="M797.32,112.61c-6.06-2.93-12.2-4.64-18.41-5.11-14.51-1.12-29.18-.6-44.01,1.57-8.29,1.21-12.72,1.86-13.27,1.96-.04,0-.08,0-.12,0-.21-.03-.35-.23-.32-.44,1.03-6.38-4.37-11.11-10.68-8.68-1.77.69-3.1,1.38-3.99,2.07-1.76,1.38-3.05,2.07-3.87,2.06-.31,0-.62.09-.87.27-2.94,2.03-5.42,4.19-7.45,6.48-3.02,3.43-5.11,5.64-6.28,6.65-6.45,5.57-13.01,10.11-19.68,13.62-.27.15-1.23.34-2.87.59-.04,0-.08,0-.12,0-.26-.03-.45-.26-.42-.51.12-1.22.37-2.31.75-3.26,1.74-4.35,3.95-8.73,6.63-13.13,13.65-22.37,29.64-41.78,46.57-62.67,1.23-1.52,5-6.55,3.36-8.83-.74-1.04-2.14-1.4-3.3-.84-.96.45-1.85,1.06-2.66,1.83-2.6,2.45-5.95,6.18-10.06,11.17-10.2,12.41-19.94,25.04-29.23,37.91-3.04,4.22-5.97,6.86-9.42,10.19-.05.05-.11.08-.18.1-.23.07-.47-.06-.54-.29-1.81-6.06-8.53-5.54-13.08-3.59-4.84,2.08-9.49,5.42-13.96,10.03-2.46,2.54-5.07,5.86-8.34,8.3-8.33,6.22-17.91,12.63-27.28,15.06-1.26.33-2.3.37-3.13.12-1-.3-1.63-1.28-1.47-2.31.39-2.67,1.58-5.62,3.55-8.86.17-.29.49-.46.82-.46,7.31.06,15.74-6.23,20.44-11.28,3.31-3.55,5.2-9.02-1.15-10.7-4.4-1.17-9.91,2.43-13.43,5.15-5.25,4.07-9.54,8.82-12.86,14.26-.17.29-.4.54-.66.74-7.2,5.51-14.44,10.64-23.19,13.72-.06.02-.12.03-.18.04-.47.06-.9-.27-.96-.74-.05-.31,0-.64.12-.99,1.83-5.16,4.71-11.01,8.63-17.56.28-.46.64-.87,1.08-1.19,13.68-10.31,26.25-22.1,37.7-35.35,6-6.94,12.64-14.96,14.91-23.22,1.41-5.09-3.74-6.23-7.15-3.78-4.21,3.03-8.38,6.53-12.5,10.5-10.16,9.79-19.53,20.33-28.1,31.64-3.07,4.04-5.81,8.19-8.22,12.45-.27.47-.75.79-1.29.86l-10.56,1.35s-.08,0-.12,0c-.29-.02-.51-.28-.48-.57,1.11-12.54-11.97-10.69-17.38-4.63-.22.25-.52.41-.85.45-1.41.17-2.51.55-3.3,1.13-7.13,5.22-16.19,15.5-16.53,24.98-.15,4.5,1.79,7.17,5.82,8,10.69,2.22,26.99-17.86,30.99-24.98.38-.67,1.05-1.12,1.81-1.21l8.06-1.04c.13-.02.27.02.38.09.26.17.34.53.16.79-4.08,6.16-7.41,12.11-9.29,19.29-.79,2.98-.26,5.55,1.57,7.72,5.55,6.54,21.57-7.66,26.17-12.02.08-.08.2-.11.31-.08.17.05.27.23.22.4-1.14,3.75-.84,6.84.9,9.26,7.39,10.25,28.09-7.04,34.39-11.77.05-.03.1-.05.16-.04.13.01.21.12.2.24-.07.51-.28,1.11-.64,1.81-2.28,4.51-1.92,12.82,5.36,11.82,3.3-.45,8.26-4.49,10.86-6.84,7.88-7.09,14.82-13.95,20.82-20.56.11-.13.31-.15.44-.04h.01c.13.11.16.3.07.44-3.84,5.77-6.61,12-8.31,18.69-.67,2.67-.34,5.04,1,7.11,5.25,8.13,21.53-7.99,25.39-11.95.08-.09.2-.12.32-.09.16.05.26.22.21.38-1.12,4.76-2.31,10.16,3.16,12.63,3.25,1.46,7.85-.21,10.58-1.92,8.16-5.08,14.98-11.72,20.46-19.91.25-.37.64-.63,1.09-.71,11.22-2.08,18.94-3.39,23.16-3.92,1.97-.25,7.87-.71,17.69-1.36,3.7-.25,8.16-.11,13.37.4,6.51.65,10.95,1.16,13.31,1.55,1.66.27,4.73,1.37,9.22,3.29.16.07.33.1.49.09.65-.02,1.15-.56,1.14-1.2v-.02c-.04-1.11-.69-2.11-1.69-2.6ZM606.82,119.01c3.57-4.89,9.04-10.58,14.83-12.9.43-.17.75-.12.97.15.23.27.22.59-.03.98-3.32,5.28-9.9,9.64-15.36,12.27-.09.04-.19.03-.28-.01-.05-.02-.08-.05-.11-.09-.03-.03-.05-.07-.06-.12-.03-.1-.01-.2.04-.28ZM599.89,89c7.38-9.66,15.65-18.46,24.82-26.39.33-.29.59-.34.78-.17.17.15.14.41-.1.76-6.66,10.13-14.29,19.5-22.9,28.09-9.37,9.35-14.16,13.94-14.37,13.75-.2-.17,3.72-5.51,11.77-16.04ZM560.93,109.25c0,.57-.43,1.06-1,1.13l-3.32.43c-.2.03-.38.14-.48.31-.2.32-.1.74.21.94l1.59.99c.08.05.16.11.23.18.51.51.51,1.33,0,1.85-2.81,2.82-4.47,5.4-7.49,7.88-4.08,3.35-10.13,7.85-15,8.54-.12.02-.24,0-.35-.04-.38-.14-.58-.55-.44-.93,1.2-3.29,3.03-6.88,5.48-10.77,1.85-2.93,4.63-5.82,8.34-8.69,3.16-2.43,6.57-4.7,10.22-6.81.2-.12.43-.18.67-.18.74,0,1.34.6,1.34,1.34v3.83ZM663.88,109.09c-1.97,1.64-4.02,3.49-6.15,5.54-6.7,6.45-13.93,11.8-21.68,16.05-.1.06-.22.06-.32,0-.15-.09-.2-.28-.11-.42,3.64-6.93,8.34-13.06,14.09-18.39,2.38-2.21,12-10.27,14.7-4.93.36.71.14,1.6-.53,2.15ZM712.51,117.41c-4.9,6.51-11.59,11.42-20.07,14.72-.2.07-.41.08-.61.01-.46-.16-.71-.66-.55-1.12,2.77-8.11,7.98-14.96,15.62-20.57.21-.15.46-.24.72-.24.68-.01,1.25.53,1.26,1.22.03,2.19,1.18,3.88,3.43,5.07.03.02.05.03.08.05.27.21.33.6.12.87ZM716.69,106.57l-1.43,4.63c-.31,1.01-1.38,1.58-2.4,1.27l-2.68-.83c-.08-.03-.16-.06-.24-.11-.52-.31-.68-.98-.37-1.5,1.41-2.34,3.49-3.81,6.24-4.41.13-.03.26-.02.38.01.4.12.62.54.5.94Z"/>
      <path class="cls-1" d="M209.69,132.57c-.1.03-.21.04-.31.03-.35-.06-.59-.39-.54-.75.09-.51.19-.86.28-1.04,4.15-7.57,8.7-14.15,13.65-19.75.22-.25.38-.55.46-.88.81-3.24-1.48-5.99-4.88-4.03-.03.02-.07.03-.1.05-.32.11-.68-.06-.79-.39-1.77-5.27-7.28-5.64-11.85-4.03-10.79,3.81-20.24,12.88-26.53,22.47-1.72,2.62-2.88,5.29-3.48,8.02-1.03,4.69,2.77,9.55,7.69,7.16,7.83-3.82,14.85-10.61,21.21-16.42.04-.05.12-.06.18-.02l.22.15s0,0,.01,0c.2.15.24.43.09.63-2.41,3.21-3.47,6.67-3.18,10.37.44,5.63,6.75,5.26,10.4,3.25,7.48-4.1,13.99-9.84,21.38-15.65.05-.04.13-.05.19-.03.1.03.16.14.12.24-.27.85-.56,1.51-.87,1.98-1.67,2.53-3.1,5.11-4.28,7.72-1.35,2.97-2.1,9.45,3.2,8.27.42-.09.77-.37.95-.75,5.53-11.24,14.31-20.42,24.33-28.52,1.86-1.5,3.86-2.76,6.01-3.77.07-.03.14-.05.21-.05.29,0,.53.22.54.51.03,2.08.47,4.54,2.82,5.15,1.83.48,3.5.24,5.02-.73.27-.17.46-.43.56-.73.23-.72-.17-1.48-.89-1.71l-1.09-.34c-.33-.1-.58-.4-.62-.75-.33-2.94-.49-7.8-4.49-6.52-6.29,2.02-11.79,7.39-17.73,12.78-.07.07-.18.08-.26.02-.07-.07-.08-.18-.02-.26l7.38-10.7c.09-.13.16-.26.22-.4.54-1.22-.01-2.65-1.23-3.19l-.37-.16c-2.05-.91-4.46-.23-5.73,1.62l-8.32,12.06c-.09.13-.19.24-.31.33-8.12,6.33-15.19,11.27-21.21,14.84-3.11,1.83-5.79,3.14-8.05,3.91ZM195.21,125.1c-3.35,2.32-6.73,4.33-10.13,6.03-.12.06-.26.07-.39.02-.27-.09-.41-.38-.31-.65.31-.85.93-1.96,1.88-3.32,4.85-6.95,10.18-12.46,15.97-16.52,3.68-2.58,6.67-4.11,8.96-4.6,1.72-.37,2.93.39,3.63,2.28.1.28.03.61-.19.82-5.81,5.68-12.28,10.99-19.42,15.94Z"/>
    </g>
  </g>
</svg>